<svg id="Layer_1" data-name="Layer 1" xmlns="http://www.w3.org/2000/svg" viewBox="0 0 624.3418 194.289"><defs><style>.cls-1{fill:#464646;}.cls-2{fill:#00b0f0;}</style></defs><path class="cls-1" d="M89.2673,43.5818V191.4001H52.7711V43.5818H0V7.6132H142.0386V43.5818Z"/><path class="cls-1" d="M249.6826,191.4001V116.8337q0-18.37455-6.0077-25.2052-6.00406-6.8226-17.2287-6.826-11.23036,0-17.364,6.6953-6.1362,6.6942-6.134,24.5487v75.3536H166.452V18.1173L202.94819,0V62.7501a38.63739,38.63739,0,0,1,12.996-8.5335,48.67028,48.67028,0,0,1,19.2968-3.5425q26.25253,0,38.5959,16.9334,12.33615,16.933,12.3396,46.078v77.7146Z"/><path class="cls-1" d="M399.33649,95.8299a41.86866,41.86866,0,0,0-9.71249-6.621,25.3994,25.3994,0,0,0-11.29131-2.5664,32.79,32.79,0,0,0-9.5818,1.3171,15.71355,15.71355,0,0,0-7.3516,4.7355,23.97593,23.97593,0,0,0-4.72669,9.2144,53.0843,53.0843,0,0,0-1.7047,14.7369v74.7537H318.4717V53.5606h36.4962v9.1038a42.47024,42.47024,0,0,1,11.68119-8.4702,36.51055,36.51055,0,0,1,16.674-3.5201,35.75123,35.75123,0,0,1,25.4668,9.7125Z"/><path class="cls-1" d="M511.44349,191.4001v-9.1894a38.45964,38.45964,0,0,1-12.99619,8.5309,48.61566,48.61566,0,0,1-19.2943,3.5474q-26.52345,0-38.72881-16.9357-12.2079-16.9335-12.2067-46.0781V53.5606H464.7091v74.5642a63.6028,63.6028,0,0,0,1.56729,15.3594,26.40312,26.40312,0,0,0,4.4403,9.8455,15.72355,15.72355,0,0,0,7.311,5.25,29.48527,29.48527,0,0,0,9.92011,1.5762q11.22345,0,17.36169-6.6953,6.13275-6.69405,6.134-24.5466V53.5606h36.4962V191.4001Z"/><path class="cls-2" d="M622.3753,179.0602a25.80366,25.80366,0,0,1-13.262,13.2576,23.64266,23.64266,0,0,1-18.90219,0,25.79548,25.79548,0,0,1-13.25759-13.2576,23.65091,23.65091,0,0,1,0-18.9043,25.79161,25.79161,0,0,1,13.25759-13.2599,23.67128,23.67128,0,0,1,18.90219,0,25.79979,25.79979,0,0,1,13.262,13.2599,23.69953,23.69953,0,0,1,0,18.9043Z"/><path class="cls-1" d="M565.54585,70.14857a10.16483,10.16483,0,0,1-7.1961-17.35031A10.16783,10.16783,0,0,1,572.725,67.182,9.7977,9.7977,0,0,1,565.54585,70.14857Zm.017-18.7319a8.56923,8.56923,0,1,0,0,17.13842,8.57663,8.57663,0,0,0,6.04337-14.62953A8.22047,8.22047,0,0,0,565.5628,51.41667Zm4.91607,14.93467H568.1395l-1.407-3.10221q-1.068-2.33937-2.30547-2.33937h-.8815v5.44158h-1.98338V53.417h3.64467a5.59108,5.59108,0,0,1,3.48363.94931,3.08239,3.08239,0,0,1,1.229,2.5767,3.2271,3.2271,0,0,1-.86455,2.26308,4.37509,4.37509,0,0,1-2.40717,1.26292v.05086q1.068.23775,2.13594,2.39022Zm-6.93335-11.25609v4.15322H565.139q2.67884,0,2.67841-2.08509a1.74781,1.74781,0,0,0-.72046-1.63586,4.59186,4.59186,0,0,0-2.28-.43227Z"/></svg>